# xmcd
#
# Track frame offsets:
# 150
# 12808
# 22222
# 34485
# 44367
# 58342
# 68392
# 77710
# 91337
# 102292
# 113012
# 121180
# 133244
# 143169
# 153597
# 166593
# 179305
#
# Disc length: 2570 seconds
#
# Revision: 0
# Processed by: cddbd v1.5.1PL2 Copyright (c) Steve Scherf et al.
# Submitted via: Audion 3.0.2 (http://www.panic.com/audion/)
#
DISCID=e00a0811
DTITLE=Billy preston - Soul meeting
DYEAR=1900
DGENRE=
TTITLE0=steady getn it
TTITLE1=let me know
TTITLE2=soul meeting
TTITLE3=the octopus
TTITLE4=slipin and slidin
TTITLE5=low down
TTITLE6=im coming through
TTITLE7=my girl
TTITLE8=shot gun
TTITLE9=stop in the name of love
TTITLE10=cant you hear my heartbeat
TTITLE11=downton
TTITLE12=eight days a week
TTITLE13=king of te road
TTITLE14=if i had a hamer
TTITLE15=go now
TTITLE16=dont let the sun catch you crying
EXTD=
EXTT0=
EXTT1=
EXTT2=
EXTT3=
EXTT4=
EXTT5=
EXTT6=
EXTT7=
EXTT8=
EXTT9=
EXTT10=
EXTT11=
EXTT12=
EXTT13=
EXTT14=
EXTT15=
EXTT16=
PLAYORDER=
